# xmcd
#
# Track frame offsets:
# 150
# 11478
# 21977
# 34137
# 46724
# 60992
# 73217
# 86106
# 97986
# 110742
# 128543
# 142038
# 152978
# 164517
# 175805
# 187650
# 198067
# 207892
# 215783
#
# Disc length: 3009 seconds
#
#
# Revision: 0
# Processed by: cddbd v1.5PL3 Copyright (c) Steve Scherf et al.
# Submitted via: FreeRIP 2.53 
#
DISCID=070bbf13
DTITLE=Jackson, Stonewall - 19 Great Country Songs
DYEAR=1900
DGENRE=
TTITLE0=Waterloo
TTITLE1=Why I'm Walkin'
TTITLE2=A Little Guy Named Joe
TTITLE3=A Wound Time Can't Erase
TTITLE4=Don't Be Angry
TTITLE5=I Washed My Hands In Muddy Water
TTITLE6=I'm Just An Old chunk Of Coal
TTITLE7=Full Moon Empty Pockets
TTITLE8=There's No Short Cuts(To Get Me Over You)
TTITLE9=Breaking Up Breakdown
TTITLE10=Let The Sun Shine On The People
TTITLE11=Tears On Her Bridal Bouquet
TTITLE12=I'm Gonna Find You
TTITLE13=I Need You Real Bad
TTITLE14=A Broken Heart, A Wedding Band
TTITLE15=Grieving In My Heart
TTITLE16=Misery Known As Heartache
TTITLE17=Wedding Bells For You And Him
TTITLE18=Knock Off Your Naggin'
EXTD=
EXTT0=
EXTT1=
EXTT2=
EXTT3=
EXTT4=
EXTT5=
EXTT6=
EXTT7=
EXTT8=
EXTT9=
EXTT10=
EXTT11=
EXTT12=
EXTT13=
EXTT14=
EXTT15=
EXTT16=
EXTT17=
EXTT18=
PLAYORDER=
